<?xml version="1.0" encoding="UTF-8" standalone="no"?>
<svg
   xmlns:dc="http://purl.org/dc/elements/1.1/"
   xmlns:cc="http://creativecommons.org/ns#"
   xmlns:rdf="http://www.w3.org/1999/02/22-rdf-syntax-ns#"
   xmlns:svg="http://www.w3.org/2000/svg"
   xmlns="http://www.w3.org/2000/svg"
   viewBox="0 0 982.67999 456.62668"
   height="456.62668"
   width="982.67999"
   xml:space="preserve"
   id="svg2"
   version="1.1"><metadata
     id="metadata8"><rdf:RDF><cc:Work
         rdf:about=""><dc:format>image/svg+xml</dc:format><dc:type
           rdf:resource="http://purl.org/dc/dcmitype/StillImage" /><dc:title></dc:title></cc:Work></rdf:RDF></metadata><defs
     id="defs6" /><g
     transform="matrix(1.3333333,0,0,-1.3333333,0,456.62667)"
     id="g10"><g
       transform="scale(0.1)"
       id="g12"><path
         id="path14"
         style="fill:#ed1c24;fill-opacity:1;fill-rule:nonzero;stroke:none"
         d="m 4219.4,1000.81 h 195.39 V 805.531 H 4219.4 v 195.279 0" /><path
         id="path16"
         style="fill:#ed1c24;fill-opacity:1;fill-rule:nonzero;stroke:none"
         d="m 4488.07,1000.81 h 195.38 V 805.531 h -195.38 v 195.279 0" /><path
         id="path18"
         style="fill:#ed1c24;fill-opacity:1;fill-rule:nonzero;stroke:none"
         d="m 4756.7,1000.81 h 195.4 V 805.531 h -195.4 v 195.279 0" /><path
         id="path20"
         style="fill:#ed1c24;fill-opacity:1;fill-rule:nonzero;stroke:none"
         d="m 5025.38,1000.81 h 195.39 V 805.531 h -195.39 v 195.279 0" /><path
         id="path22"
         style="fill:#ed1c24;fill-opacity:1;fill-rule:nonzero;stroke:none"
         d="m 5294.04,1000.81 h 195.39 V 805.531 h -195.39 v 195.279 0" /><path
         id="path24"
         style="fill:#ed1c24;fill-opacity:1;fill-rule:nonzero;stroke:none"
         d="M 5562.71,1000.81 H 5758.1 V 805.531 h -195.39 v 195.279 0" /><path
         id="path26"
         style="fill:#ed1c24;fill-opacity:1;fill-rule:nonzero;stroke:none"
         d="m 4219.4,1269.29 h 195.39 V 1074.01 H 4219.4 v 195.28 0" /><path
         id="path28"
         style="fill:#ed1c24;fill-opacity:1;fill-rule:nonzero;stroke:none"
         d="m 4488.07,1269.29 h 195.38 v -195.28 h -195.38 v 195.28 0" /><path
         id="path30"
         style="fill:#ed1c24;fill-opacity:1;fill-rule:nonzero;stroke:none"
         d="m 4756.7,1269.29 h 195.4 v -195.28 h -195.4 v 195.28 0" /><path
         id="path32"
         style="fill:#ed1c24;fill-opacity:1;fill-rule:nonzero;stroke:none"
         d="m 5025.38,1269.29 h 195.39 v -195.28 h -195.39 v 195.28 0" /><path
         id="path34"
         style="fill:#ed1c24;fill-opacity:1;fill-rule:nonzero;stroke:none"
         d="m 5294.04,1269.29 h 195.39 v -195.28 h -195.39 v 195.28 0" /><path
         id="path36"
         style="fill:#ed1c24;fill-opacity:1;fill-rule:nonzero;stroke:none"
         d="m 5562.71,1269.29 h 195.39 v -195.28 h -195.39 v 195.28 0" /><path
         id="path38"
         style="fill:#ed1c24;fill-opacity:1;fill-rule:nonzero;stroke:none"
         d="m 5831.37,1269.29 h 195.39 v -195.28 h -195.39 v 195.28 0" /><path
         id="path40"
         style="fill:#ed1c24;fill-opacity:1;fill-rule:nonzero;stroke:none"
         d="m 6100.02,1269.29 h 195.39 v -195.28 h -195.39 v 195.28 0" /><path
         id="path42"
         style="fill:#ed1c24;fill-opacity:1;fill-rule:nonzero;stroke:none"
         d="m 4219.4,1537.84 h 195.39 V 1342.56 H 4219.4 v 195.28 0" /><path
         id="path44"
         style="fill:#ed1c24;fill-opacity:1;fill-rule:nonzero;stroke:none"
         d="m 4488.07,1537.84 h 195.38 v -195.28 h -195.38 v 195.28 0" /><path
         id="path46"
         style="fill:#ed1c24;fill-opacity:1;fill-rule:nonzero;stroke:none"
         d="m 4756.7,1537.84 h 195.4 v -195.28 h -195.4 v 195.28 0" /><path
         id="path48"
         style="fill:#ed1c24;fill-opacity:1;fill-rule:nonzero;stroke:none"
         d="m 5025.38,1537.84 h 195.39 v -195.28 h -195.39 v 195.28 0" /><path
         id="path50"
         style="fill:#ed1c24;fill-opacity:1;fill-rule:nonzero;stroke:none"
         d="m 5294.04,1537.84 h 195.39 v -195.28 h -195.39 v 195.28 0" /><path
         id="path52"
         style="fill:#ed1c24;fill-opacity:1;fill-rule:nonzero;stroke:none"
         d="m 5562.71,1537.84 h 195.39 v -195.28 h -195.39 v 195.28 0" /><path
         id="path54"
         style="fill:#ed1c24;fill-opacity:1;fill-rule:nonzero;stroke:none"
         d="m 5831.37,1537.84 h 195.39 v -195.28 h -195.39 v 195.28 0" /><path
         id="path56"
         style="fill:#ed1c24;fill-opacity:1;fill-rule:nonzero;stroke:none"
         d="m 6100.02,1537.84 h 195.39 v -195.28 h -195.39 v 195.28 0" /><path
         id="path58"
         style="fill:#ed1c24;fill-opacity:1;fill-rule:nonzero;stroke:none"
         d="m 6368.69,1537.84 h 195.3 v -195.28 h -195.3 v 195.28 0" /><path
         id="path60"
         style="fill:#ed1c24;fill-opacity:1;fill-rule:nonzero;stroke:none"
         d="m 6637.35,1537.84 h 195.39 v -195.28 h -195.39 v 195.28 0" /><path
         id="path62"
         style="fill:#ed1c24;fill-opacity:1;fill-rule:nonzero;stroke:none"
         d="m 4219.4,1806.35 h 195.39 v -195.3 H 4219.4 v 195.3 0" /><path
         id="path64"
         style="fill:#ed1c24;fill-opacity:1;fill-rule:nonzero;stroke:none"
         d="m 4488.07,1806.35 h 195.38 v -195.3 h -195.38 v 195.3 0" /><path
         id="path66"
         style="fill:#ed1c24;fill-opacity:1;fill-rule:nonzero;stroke:none"
         d="m 4756.7,1806.35 h 195.4 v -195.3 h -195.4 v 195.3 0" /><path
         id="path68"
         style="fill:#ed1c24;fill-opacity:1;fill-rule:nonzero;stroke:none"
         d="m 5025.38,1806.35 h 195.39 v -195.3 h -195.39 v 195.3 0" /><path
         id="path70"
         style="fill:#ed1c24;fill-opacity:1;fill-rule:nonzero;stroke:none"
         d="m 5294.04,1806.35 h 195.39 v -195.3 h -195.39 v 195.3 0" /><path
         id="path72"
         style="fill:#ed1c24;fill-opacity:1;fill-rule:nonzero;stroke:none"
         d="m 5562.71,1806.35 h 195.39 v -195.3 h -195.39 v 195.3 0" /><path
         id="path74"
         style="fill:#ed1c24;fill-opacity:1;fill-rule:nonzero;stroke:none"
         d="m 5831.37,1806.35 h 195.39 v -195.3 h -195.39 v 195.3 0" /><path
         id="path76"
         style="fill:#ed1c24;fill-opacity:1;fill-rule:nonzero;stroke:none"
         d="m 6100.02,1806.35 h 195.39 v -195.3 h -195.39 v 195.3 0" /><path
         id="path78"
         style="fill:#ed1c24;fill-opacity:1;fill-rule:nonzero;stroke:none"
         d="m 6368.69,1806.35 h 195.41 v -195.3 h -195.41 v 195.3 0" /><path
         id="path80"
         style="fill:#ed1c24;fill-opacity:1;fill-rule:nonzero;stroke:none"
         d="m 6637.35,1806.35 h 195.39 v -195.3 h -195.39 v 195.3 0" /><path
         id="path82"
         style="fill:#ed1c24;fill-opacity:1;fill-rule:nonzero;stroke:none"
         d="m 6906.02,1806.35 h 195.39 v -195.3 h -195.39 v 195.3 0" /><path
         id="path84"
         style="fill:#ed1c24;fill-opacity:1;fill-rule:nonzero;stroke:none"
         d="m 7174.68,1806.35 h 195.39 v -195.3 h -195.39 v 195.3 0" /><path
         id="path86"
         style="fill:#ed1c24;fill-opacity:1;fill-rule:nonzero;stroke:none"
         d="m 4219.4,732.32 h 195.39 V 537.039 H 4219.4 v 195.281 0" /><path
         id="path88"
         style="fill:#ed1c24;fill-opacity:1;fill-rule:nonzero;stroke:none"
         d="m 4488.07,732.32 h 195.38 V 537.039 h -195.38 v 195.281 0" /><path
         id="path90"
         style="fill:#ed1c24;fill-opacity:1;fill-rule:nonzero;stroke:none"
         d="m 4756.7,732.32 h 195.4 V 537.039 h -195.4 v 195.281 0" /><path
         id="path92"
         style="fill:#ed1c24;fill-opacity:1;fill-rule:nonzero;stroke:none"
         d="m 5025.38,732.32 h 195.39 V 537.039 h -195.39 v 195.281 0" /><path
         id="path94"
         style="fill:#ed1c24;fill-opacity:1;fill-rule:nonzero;stroke:none"
         d="m 4219.4,463.781 h 195.39 V 268.492 H 4219.4 v 195.289 0" /><path
         id="path96"
         style="fill:#ed1c24;fill-opacity:1;fill-rule:nonzero;stroke:none"
         d="m 4488.07,463.781 h 195.38 V 268.492 h -195.38 v 195.289 0" /><path
         id="path98"
         style="fill:#ed1c24;fill-opacity:1;fill-rule:nonzero;stroke:none"
         d="m 4219.4,195.281 h 195.39 V 0 H 4219.4 v 195.281 0" /><path
         id="path100"
         style="fill:none;stroke:#231f20;stroke-width:30.03190041;stroke-linecap:butt;stroke-linejoin:miter;stroke-miterlimit:2;stroke-dasharray:none;stroke-opacity:1"
         d="M 3682.07,2004.61 H 6832.74 L 3682.07,3401.58 Z" /><path
         id="path102"
         style="fill:#231f20;fill-opacity:1;fill-rule:nonzero;stroke:none"
         d="m 1788.77,1769.56 v -244.14 h 36.04 c 48.95,0 98.34,21.35 98.34,124.07 0,105.39 -51.62,120.07 -101.45,120.07 z m 175.76,-120.07 c 0,-125.41 -77.42,-154.77 -142.83,-154.77 h -71.2 v 305.97 h 63.19 c 76.53,0 150.84,-24.46 150.84,-151.2" /><path
         id="path104"
         style="fill:#231f20;fill-opacity:1;fill-rule:nonzero;stroke:none"
         d="m 2194.53,1769.56 h -120.58 v -103.18 h 104.56 v -31.12 h -104.56 v -109.39 h 128.15 v -31.15 h -166.42 v 305.97 h 163.3 l -4.45,-31.13" /><path
         id="path106"
         style="fill:#231f20;fill-opacity:1;fill-rule:nonzero;stroke:none"
         d="m 2477.93,1592.13 c 0,-60.04 -37.38,-102.73 -105.9,-102.73 -69.41,0 -105.01,42.69 -105.01,102.73 v 208.56 h 38.26 v -205.46 c 0,-48.02 21.36,-72.93 66.75,-72.93 45.83,0 66.75,24.91 66.75,72.93 v 205.46 h 39.15 v -208.56" /><path
         id="path108"
         style="fill:#231f20;fill-opacity:1;fill-rule:nonzero;stroke:none"
         d="m 2738.18,1767.78 h -85.87 v -273.06 h -38.27 v 273.06 h -88.1 v 32.91 h 216.69 l -4.45,-32.91" /><path
         id="path110"
         style="fill:#231f20;fill-opacity:1;fill-rule:nonzero;stroke:none"
         d="m 2950.85,1770.9 -20.91,-23.58 c -23.15,18.68 -44.5,26.69 -70.31,26.69 -32.48,0 -56.96,-15.56 -56.96,-45.36 0,-27.13 12.91,-40.02 68.09,-56.92 50.27,-15.12 89.88,-34.69 89.88,-92.06 0,-53.36 -40.05,-90.27 -107.24,-90.27 -43.61,0 -77.42,14.67 -102.79,39.13 l 21.36,24.01 c 23.14,-19.11 47.18,-31.13 80.99,-31.13 37.38,0 67.63,19.13 67.63,56.93 0,31.57 -15.13,45.35 -67.63,61.37 -60.07,18.23 -89.89,40.9 -89.89,87.6 0,45.8 39.16,78.71 94.79,78.71 41.81,0 68.07,-12.45 92.99,-35.12" /><path
         id="path112"
         style="fill:#231f20;fill-opacity:1;fill-rule:nonzero;stroke:none"
         d="m 3215.56,1776.23 -20.92,-24.9 c -19.57,15.56 -37.82,22.68 -60.06,22.68 -48.06,0 -87.66,-32.47 -87.66,-126.3 0,-89.39 38.26,-125.41 87.21,-125.41 29.36,0 48.06,12.01 65.86,25.35 l 19.13,-24.46 c -17.36,-17.34 -45.83,-33.79 -86.32,-33.79 -73.42,0 -126.82,55.58 -126.82,158.31 0,104.06 56.96,158.31 126.37,158.31 37.82,0 59.18,-10.66 83.21,-29.79" /><path
         id="path114"
         style="fill:#231f20;fill-opacity:1;fill-rule:nonzero;stroke:none"
         d="m 3445.56,1639.71 h -133.03 v -144.99 h -38.28 v 305.97 h 38.28 v -128.96 h 133.03 v 128.96 h 38.71 v -305.97 h -38.71 v 144.99" /><path
         id="path116"
         style="fill:#231f20;fill-opacity:1;fill-rule:nonzero;stroke:none"
         d="m 3734.74,1769.56 h -120.58 v -103.18 h 104.57 v -31.12 h -104.57 v -109.39 h 128.15 v -31.15 h -166.42 v 305.97 h 163.31 l -4.46,-31.13" /><path
         id="path118"
         style="fill:#231f20;fill-opacity:1;fill-rule:nonzero;stroke:none"
         d="m 3894.9,1656.16 c 44.04,0 69.41,16.46 69.41,58.7 0,38.69 -22.24,55.59 -74.31,55.59 h -40.04 v -114.29 z m 5.78,-29.79 h -50.72 v -131.65 h -38.27 v 305.97 h 78.75 c 75.65,0 114.8,-29.35 114.8,-85.83 0,-43.58 -23.13,-68.92 -66.74,-81.82 l 82.77,-138.32 h -45.84 l -74.75,131.65" /><path
         id="path120"
         style="fill:#231f20;fill-opacity:1;fill-rule:nonzero;stroke:none"
         d="m 160.395,1046.77 c 0,43.17 -31.727,58.14 -69.1802,58.14 H 37.8945 V 991.73 h 45.3868 c 45.3867,0 77.1137,10.56 77.1137,55.04 z M 37.8945,1233.5 v -99.09 H 87.25 c 34.813,0 60.809,17.61 60.809,50.65 0,37.87 -27.321,48.44 -73.5902,48.44 z M 200.938,1046.77 c 0,-62.969 -48.032,-85.879 -117.6567,-85.879 H 0 v 302.989 h 70.5039 c 73.5901,0 116.7731,-23.76 116.7731,-76.19 0,-37.87 -26.441,-60.32 -56.402,-66.49 35.691,-5.72 70.063,-22.9 70.063,-74.43" /><path
         id="path122"
         style="fill:#231f20;fill-opacity:1;fill-rule:nonzero;stroke:none"
         d="m 471.457,1057.34 c 0,-59.449 -37.019,-101.731 -104.879,-101.731 -68.734,0 -103.988,42.282 -103.988,101.731 v 206.54 h 37.89 v -203.46 c 0,-47.56 21.153,-72.229 66.098,-72.229 45.391,0 66.102,24.669 66.102,72.229 v 203.46 h 38.777 v -206.54" /><path
         id="path124"
         style="fill:#231f20;fill-opacity:1;fill-rule:nonzero;stroke:none"
         d="M 767.086,960.891 H 715.973 L 588.184,1222.05 c 2.203,-24.22 5.289,-59.01 5.289,-114.94 V 960.891 h -35.696 v 302.989 h 49.797 l 128.672,-261.59 c -0.883,8.36 -4.848,54.61 -4.848,92.04 v 169.55 h 35.688 V 960.891" /><path
         id="path126"
         style="fill:#231f20;fill-opacity:1;fill-rule:nonzero;stroke:none"
         d="M 895.719,1233.06 V 991.289 h 35.691 c 48.473,0 97.38,21.131 97.38,122.861 0,104.38 -51.114,118.91 -100.466,118.91 z m 174.061,-118.91 c 0,-124.189 -76.682,-153.259 -141.456,-153.259 h -70.508 v 302.989 h 62.579 c 75.789,0 149.385,-24.21 149.385,-149.73" /><path
         id="path128"
         style="fill:#231f20;fill-opacity:1;fill-rule:nonzero;stroke:none"
         d="m 1297.54,1233.06 h -119.41 v -102.17 h 103.56 v -30.83 H 1178.13 V 991.73 h 126.91 v -30.839 h -164.8 v 302.989 h 161.71 l -4.41,-30.82" /><path
         id="path130"
         style="fill:#231f20;fill-opacity:1;fill-rule:nonzero;stroke:none"
         d="m 1534.59,1234.38 -20.71,-23.34 c -22.92,18.5 -44.07,26.43 -69.63,26.43 -32.16,0 -56.4,-15.42 -56.4,-44.92 0,-26.87 12.78,-39.63 67.42,-56.38 49.79,-14.97 89.01,-34.36 89.01,-91.16 0,-52.838 -39.66,-89.401 -106.19,-89.401 -43.19,0 -76.67,14.532 -101.79,38.75 l 21.15,23.781 c 22.91,-18.929 46.71,-30.831 80.2,-30.831 37.01,0 66.97,18.951 66.97,56.381 0,31.26 -14.98,44.91 -66.97,60.78 -59.49,18.05 -89.02,40.51 -89.02,86.76 0,45.35 38.78,77.95 93.87,77.95 41.41,0 67.41,-12.34 92.09,-34.8" /><path
         id="path132"
         style="fill:#231f20;fill-opacity:1;fill-rule:nonzero;stroke:none"
         d="m 1652.21,1002.73 c 0,-61.21 -27.76,-84.121 -76.68,-100.41 l -10.13,27.75 c 40.1,16.289 48.47,33.899 48.47,74.42 v 259.39 h 38.34 v -261.15" /><path
         id="path134"
         style="fill:#231f20;fill-opacity:1;fill-rule:nonzero;stroke:none"
         d="m 1945.22,1057.34 c 0,-59.449 -37.02,-101.731 -104.88,-101.731 -68.74,0 -103.99,42.282 -103.99,101.731 v 206.54 h 37.89 v -203.46 c 0,-47.56 21.16,-72.229 66.1,-72.229 45.39,0 66.1,24.669 66.1,72.229 v 203.46 h 38.78 v -206.54" /><path
         id="path136"
         style="fill:#231f20;fill-opacity:1;fill-rule:nonzero;stroke:none"
         d="m 2231.16,1236.58 -22.48,-23.78 c -21.15,17.18 -39.66,24.67 -66.98,24.67 -44.5,0 -89.45,-33.91 -89.45,-124.64 0,-88.53 31.29,-125.521 85.93,-125.521 21.15,0 41.42,4.421 59.05,14.091 v 95.14 h -55.09 l -4.4,31.27 h 97.38 V 982.031 c -28.2,-16.289 -59.48,-26.422 -96.94,-26.422 -77.55,0 -126.47,52.411 -126.47,157.221 0,102.62 61.25,156.35 129.99,156.35 39.22,0 63.9,-11.46 89.46,-32.6" /><path
         id="path138"
         style="fill:#231f20;fill-opacity:1;fill-rule:nonzero;stroke:none"
         d="m 2465.54,1233.06 h -119.42 v -102.17 h 103.55 v -30.83 H 2346.12 V 991.73 h 126.91 v -30.839 h -164.8 v 302.989 h 161.72 l -4.41,-30.82" /><path
         id="path140"
         style="fill:#231f20;fill-opacity:1;fill-rule:nonzero;stroke:none"
         d="m 2751.05,960.891 h -51.11 l -127.8,261.159 c 2.21,-24.22 5.29,-59.01 5.29,-114.94 V 960.891 h -35.69 v 302.989 h 49.79 l 128.67,-261.59 c -0.88,8.36 -4.84,54.61 -4.84,92.04 v 169.55 h 35.69 V 960.891" /><path
         id="path142"
         style="fill:#231f20;fill-opacity:1;fill-rule:nonzero;stroke:none"
         d="M 2879.68,1233.06 V 991.289 h 35.7 c 48.46,0 97.37,21.131 97.37,122.861 0,104.38 -51.11,118.91 -100.46,118.91 z m 174.06,-118.91 c 0,-124.189 -76.67,-153.259 -141.45,-153.259 h -70.51 v 302.989 h 62.58 c 75.78,0 149.38,-24.21 149.38,-149.73" /><path
         id="path144"
         style="fill:#231f20;fill-opacity:1;fill-rule:nonzero;stroke:none"
         d="m 3206.6,1120.76 c 43.63,0 68.75,16.29 68.75,58.13 0,38.32 -22.04,55.05 -73.6,55.05 h -39.65 v -113.18 z m 5.73,-29.5 H 3162.1 V 960.891 h -37.9 v 302.989 h 77.99 c 74.92,0 113.69,-29.06 113.69,-84.99 0,-43.16 -22.92,-68.26 -66.1,-81.03 l 81.96,-136.969 h -45.38 l -74.03,130.369" /><path
         id="path146"
         style="fill:#231f20;fill-opacity:1;fill-rule:nonzero;stroke:none"
         d="m 3426.89,960.891 h -37.9 v 302.989 h 37.9 V 960.891" /><path
         id="path148"
         style="fill:#231f20;fill-opacity:1;fill-rule:nonzero;stroke:none"
         d="m 3726.95,960.891 h -51.11 l -127.8,261.159 c 2.21,-24.22 5.3,-59.01 5.3,-114.94 V 960.891 h -35.7 v 302.989 h 49.8 l 128.66,-261.59 c -0.88,8.36 -4.84,54.61 -4.84,92.04 v 169.55 h 35.69 V 960.891" /><path
         id="path150"
         style="fill:#231f20;fill-opacity:1;fill-rule:nonzero;stroke:none"
         d="m 4017.29,1236.58 -22.47,-23.78 c -21.15,17.18 -39.66,24.67 -66.98,24.67 -44.5,0 -89.45,-33.91 -89.45,-124.64 0,-88.53 31.28,-125.521 85.93,-125.521 21.14,0 41.42,4.421 59.05,14.091 v 95.14 h -55.09 l -4.4,31.27 h 97.39 V 982.031 c -28.21,-16.289 -59.5,-26.422 -96.95,-26.422 -77.56,0 -126.47,52.411 -126.47,157.221 0,102.62 61.26,156.35 129.99,156.35 39.22,0 63.89,-11.46 89.45,-32.6" /></g></g></svg>