<svg data-name="Layer 1" xmlns="http://www.w3.org/2000/svg" viewBox="0 0 507.31 90.19"><title>visionapps</title><g data-name="Vrstva 1" fill="#333"><path d="M84.91 68.75v-8a60.1 60.1 0 0 0 18.64 3q12.51 0 12.51-7.48 0-7-8.72-7h-7.48q-17 0-16.95-15.45 0-15 21.78-15a71 71 0 0 1 18.59 2.49v8a60 60 0 0 0-18.59-3q-13.06 0-13.06 7.48 0 7 8.23 7h7.48q17.95 0 17.95 15.45 0 15-21.74 15a71.15 71.15 0 0 1-18.64-2.49zM148 18.9v52.35h-9.22V18.9H148zM159.49 45.08q0-26.17 24.93-26.17t24.93 26.17q0 26.12-24.93 26.12t-24.93-26.12zm24.93 18.69q15.7 0 15.7-18.89 0-18.49-15.7-18.5t-15.7 18.5q-.01 18.89 15.7 18.89zM247.1 19.18c12.26 1.27 17.67 5.58 17.88 19.22v32.85h-9.22v-33c-.09-6.34-3.52-11-11.17-11.5-4.88-.33-11-.26-15.5 1v43.5h-9.22V21.04c8.13-2.25 19.49-2.62 27.23-1.86zM466.93 68.75v-8a60.1 60.1 0 0 0 18.64 3q12.51 0 12.51-7.48 0-7-8.72-7h-7.48q-16.95 0-16.95-15.45 0-15 21.78-15a71 71 0 0 1 18.59 2.49v8a60 60 0 0 0-18.59-3q-13.06 0-13.06 7.48 0 7 8.23 7h7.48q17.95 0 17.95 15.45 0 15-21.73 15a71.15 71.15 0 0 1-18.65-2.49zM372.69 18.9a106.6 106.6 0 0 0-21.54 2.1v69.19h9.22V27.78a55.29 55.29 0 0 1 12.21-1.2q16.2 0 16.2 17.1 0 19.59-16.3 19.59a29 29 0 0 1-6.4-.7v7.95a30.17 30.17 0 0 0 6.45.73q25.32 0 25.32-27.47.01-24.88-25.16-24.88zM429.8 18.9a106.6 106.6 0 0 0-21.54 2.1v69.19h9.22V27.78a55.29 55.29 0 0 1 12.21-1.2q16.2 0 16.2 17.1 0 19.59-16.3 19.59a29 29 0 0 1-6.4-.7v7.95a30.17 30.17 0 0 0 6.45.73q25.36 0 25.36-27.47 0-24.88-25.2-24.88zM60.21 18.9h9.27v52.34h-9.27zM0 18.9h10l15 41 14.91-41h10L28.57 71.25H20zM307.5 11.65L284 71.25h-11.5L302.72 0h10.21l30.39 71.25h-12.15z"/></g></svg>