<?xml version="1.0" encoding="utf-8"?>
<!-- Generator: Adobe Illustrator 19.1.0, SVG Export Plug-In . SVG Version: 6.00 Build 0)  -->
<svg version="1.1" id="Vrstva_1" xmlns="http://www.w3.org/2000/svg" xmlns:xlink="http://www.w3.org/1999/xlink" x="0px" y="0px"
	width="25px" height="25px" viewBox="0 0 100 100" enable-background="new 0 0 100 100" xml:space="preserve">
<path id="XMLID_5_" fill="#FFFFFF" d="M84.389,80.771c2.233-1.507,12.103-13.753,13.143-29.925
	c1.607-17.83-2.294-27.413-21.042-36.125C51.866,3.017,22.597,2.266,17.048,4.838c0,0-8.485,1.136-12.942,20.777
	c-1.834,8.07-3.996,22.186,0.835,45.47c3.792,18.274,22.508,17.573,23.616,17.775c3.732,0.679,23.868,0.521,32.046,0.521
	c9.865,0,34.845,6.996,39.398,6.996L84.389,80.771z M63.501,45.776c-0.183,2.605-0.492,4.908-0.928,6.909
	c-1.925,0.364-3.969,0.665-6.129,0.9c-2.161,0.237-4.305,0.43-6.43,0.574c-2.125,0.147-4.124,0.237-5.994,0.274
	c-1.869,0.036-3.46,0.055-4.766,0.055c0.073,2.985,0.345,5.453,0.817,7.399c0.47,1.949,1.114,3.477,1.93,4.588
	c0.817,1.111,1.86,1.894,3.13,2.348c1.269,0.455,2.758,0.682,4.462,0.682c2.219,0,4.409-0.317,6.573-0.955
	c2.163-0.636,4.207-1.483,6.135-2.54c0.29,0.839,0.5,1.85,0.627,3.032c0.128,1.182,0.192,2.231,0.192,3.14
	c0,0.91-0.41,1.729-1.228,2.458c-0.817,0.729-1.934,1.374-3.353,1.938c-1.418,0.565-3.052,0.991-4.908,1.284
	c-1.852,0.29-3.834,0.436-5.942,0.436c-2.633,0-5.047-0.329-7.241-0.983c-2.195-0.655-4.079-1.938-5.652-3.851
	c-1.573-1.911-2.815-4.578-3.729-8.001c-0.915-3.422-1.372-7.864-1.372-13.325c0-7.026,0.585-12.642,1.755-16.848
	c1.167-4.206,2.667-7.428,4.494-9.666c1.827-2.239,3.939-3.706,6.33-4.398c2.395-0.689,4.834-1.037,7.317-1.037
	c9.455,0,14.182,5.99,14.182,17.968C63.774,40.635,63.683,43.175,63.501,45.776z M53.511,30.622
	c0.872,1.676,1.344,4.533,1.417,8.574c0,1.02-0.037,2.131-0.111,3.332c-0.072,1.2-0.216,2.331-0.434,3.385
	c-0.98,0.294-2.114,0.511-3.402,0.655c-1.288,0.146-2.62,0.273-4.001,0.384c-1.379,0.109-2.728,0.164-4.054,0.164
	c-1.323,0-2.51,0-3.562,0c0.143-3.786,0.487-6.89,1.032-9.314c0.545-2.42,1.242-4.359,2.097-5.816
	c0.851-1.454,1.804-2.465,2.857-3.03c1.051-0.564,2.14-0.848,3.266-0.848C51.009,28.108,52.639,28.947,53.511,30.622z"/>
</svg>
