<svg id="Layer_1" data-name="Layer 1" xmlns="http://www.w3.org/2000/svg" viewBox="0 0 507.31 90.19"><title>visionapps</title><g id="Vrstva_1" data-name="Vrstva 1"><path d="M84.91,68.75v-8a60.1,60.1,0,0,0,18.64,3q12.51,0,12.51-7.48,0-7-8.72-7H99.86q-17,0-16.95-15.45,0-15,21.78-15a71,71,0,0,1,18.59,2.49v8a60,60,0,0,0-18.59-3q-13.06,0-13.06,7.48,0,7,8.23,7h7.48q17.95,0,17.95,15.45,0,15-21.74,15A71.15,71.15,0,0,1,84.91,68.75Z" fill="#333"/><path d="M148,18.9V71.25h-9.22V18.9H148Z" fill="#333"/><path d="M159.49,45.08q0-26.17,24.93-26.17t24.93,26.17q0,26.12-24.93,26.12T159.49,45.08Zm24.93,18.69q15.7,0,15.7-18.89,0-18.49-15.7-18.5t-15.7,18.5Q168.71,63.77,184.42,63.77Z" fill="#333"/><path d="M247.1,19.18c12.26,1.27,17.67,5.58,17.88,19.22V71.25h-9.22v-33c-0.09-6.34-3.52-11-11.17-11.5-4.88-.33-11-0.26-15.5,1V71.25h-9.22l0-50.21C228,18.79,239.36,18.42,247.1,19.18Z" fill="#333"/><path d="M466.93,68.75v-8a60.1,60.1,0,0,0,18.64,3q12.51,0,12.51-7.48,0-7-8.72-7h-7.48q-16.95,0-16.95-15.45,0-15,21.78-15a71,71,0,0,1,18.59,2.49v8a60,60,0,0,0-18.59-3q-13.06,0-13.06,7.48,0,7,8.23,7h7.48q17.95,0,17.95,15.45,0,15-21.73,15A71.15,71.15,0,0,1,466.93,68.75Z" fill="#333"/><path d="M372.69,18.9A106.6,106.6,0,0,0,351.15,21V90.19h9.22V27.78a55.29,55.29,0,0,1,12.21-1.2q16.2,0,16.2,17.1,0,19.59-16.3,19.59a29,29,0,0,1-6.4-.7v7.95a30.17,30.17,0,0,0,6.45.73q25.32,0,25.32-27.47Q397.86,18.9,372.69,18.9Z" fill="#333"/><path d="M429.8,18.9A106.6,106.6,0,0,0,408.26,21V90.19h9.22V27.78a55.29,55.29,0,0,1,12.21-1.2q16.2,0,16.2,17.1,0,19.59-16.3,19.59a29,29,0,0,1-6.4-.7v7.95a30.17,30.17,0,0,0,6.45.73Q455,71.25,455,43.78,455,18.9,429.8,18.9Z" fill="#333"/><rect x="60.21" y="18.9" width="9.27" height="52.34" fill="#333"/><path d="M0,18.9H10l15,41,14.91-41h10L28.57,71.25H20Z" fill="#333"/><path d="M307.5,11.65L284,71.25h-11.5L302.72,0h10.21l30.39,71.25H331.17Z" fill="#333"/></g></svg>